arm26_states
version=1
nRows=10
nColumns=17
inDegrees=yes

# SIMM Motion File Header:
name arm26_states
datacolumns 17
datarows 10
otherdata 1
range 0.08000000 0.08005911
endheader
time	/jointset/r_shoulder/r_shoulder_elev/value	/jointset/r_shoulder/r_shoulder_elev/speed	/jointset/r_elbow/r_elbow_flex/value	/jointset/r_elbow/r_elbow_flex/speed	/forceset/TRIlong/activation	/forceset/TRIlong/fiber_length	/forceset/TRIlat/activation	/forceset/TRIlat/fiber_length	/forceset/TRImed/activation	/forceset/TRImed/fiber_length	/forceset/BIClong/activation	/forceset/BIClong/fiber_length	/forceset/BICshort/activation	/forceset/BICshort/fiber_length	/forceset/BRA/activation	/forceset/BRA/fiber_length
      0.08000000	      0.00000000	      0.00000000	      0.00000000	      0.00000000	      0.05000000	      0.10000000	      0.05000000	      0.10000000	      0.05000000	      0.10000000	      0.05000000	      0.10000000	      0.05000000	      0.10000000	      0.05000000	      0.10000000
      0.08000001	     -0.00000000	     -0.00001381	     -0.00000000	     -0.00084326	      0.04999999	      0.10001099	      0.04999999	      0.10000000	      0.04999999	      0.10000000	29949118364275822134982679088332140699232053420931772067062804923595028605664946823787782673937081619266390214063292829141790076730518303611764539219459314982844048080896.00000000	      0.10000166	54198852288689918979448261949618000466397335920872994793876781567594007460071971848236422595388339076348886397004140261854477646492241551075311616.00000000	      0.10000289	      0.04999999	      0.09999999
      0.08000002	     -0.00000000	     -0.00002769	     -0.00000000	     -0.00168584	      0.04999999	      0.10002197	      0.04999999	      0.09999999	      0.04999999	      0.09999999	51143879052840251706055212859384540604822333320288218267831637786309182347483235173601770921184694306970694223915801055884393837882375781807668548399167708430099525140480.00000000	      0.10000250	92554963139147393107706572932214785860156585965402693208379113728754100001682117759328437353315437829521904445977980939902898786006969726424580096.00000000	      0.10000440	      0.04999999	      0.09999998
      0.08000007	     -0.00000000	     -0.00009830	     -0.00000000	     -0.00588838	      0.04999995	      0.10007682	      0.04999995	      0.09999998	      0.04999995	      0.09999998	157117682554489662998790381822068083731845564972077479155584655407492085955348417101211534794539355499454258862772752266093266731610928062833680320920702788550820861313024.00000000	      0.10000670	284335517497894366775321358925722516861818463222553643158993451807061107597705006385057012125233663450523528596407615499256557557354499421327327232.00000000	      0.10001196	      0.04999995	      0.09999992
      0.08000032	     -0.00000000	     -0.00048101	     -0.00000000	     -0.02664393	      0.04999977	      0.10034941	      0.04999977	      0.09999990	      0.04999977	      0.09999990	686986700033323086067803985338950390120672682377789502717474589285551364329842276184769939083560990484656772491397374817635721882958300666221257968723560389407999440977920.00000000	      0.10002769	1243238289238399400328197343903220954912724826274052722735768899052543971088078402603109941826175949148270509146100635542774543340362341539072966656.00000000	      0.10004975	      0.04999977	      0.09999965
      0.08000157	     -0.00000000	     -0.00311789	     -0.00000010	     -0.12413495	      0.04999887	      0.10167210	      0.04999887	      0.09999949	      0.04999887	      0.09999949	3336331787486317441386580625631238541409336354701125927321942925946771480084852785268014730537078553761351363432033899194288099901313839579136343013454344100319450529529856.00000000	      0.10013244	6037752148047384481657906241402501221982510892591425363378701254643921252521630571601229565543239889969275429463758913837291653006375485791063244800.00000000	      0.10023797	      0.04999887	      0.09999828
      0.08000782	     -0.00000010	     -0.03247123	     -0.00000207	     -0.47017948	      0.04999438	      0.10741993	      0.04999438	      0.09999744	      0.04999438	      0.09999744	16583057224810117745103733724289877476303582629373812595158422053393560044204345141639038344873585531475438964955458990939548478157371092000061714989695473219132568746590208.00000000	      0.10065120	30010321442198769934959925019309803893910576314106183574301397770003966231854096474001505434010942012325341541619943232061582508234786588505036292096.00000000	      0.10116211	      0.04999438	      0.09999144
      0.08002013	     -0.00000116	     -0.15075394	     -0.00000937	     -0.61328420	      0.04998554	      0.11569300	      0.04998554	      0.09999342	      0.04998554	      0.09999342	42663550556128300742006969160012971796783682647874689005736581259153793039852860233014829437173940950464500106544916921525607929028729438306617129222987516184695785018884096.00000000	      0.10164900	77208131691143514931929036541350804433678957230871825117640721606571388816971821069845283120702926756876591369771609976262968059912136439450776371200.00000000	      0.10290298	      0.04998554	      0.09997798
      0.08003781	     -0.00000600	     -0.40994471	     -0.00001585	      0.00651286	      0.04997283	      0.12325193	      0.04997283	      0.09998763	      0.04997283	      0.09998763	80139075667481151425323016155823532180340650813099928779190407852241067717944626494527778761143987450279009136690729928452356997172374697246541332204134412539411323538112512.00000000	      0.10303066	145027505378420199852561509930033626794771300407576638066467634646896921197507232103406149512839311360112911901547882326590825154561750364640493174784.00000000	      0.10523759	      0.04997283	      0.09995866
      0.08005911	     -0.00001875	     -0.79553445	     -0.00000093	      1.49112519	      0.04995753	      0.12852675	      0.04995753	      0.09998066	      0.04995753	      0.09998066	125296839050239734818183818775992344601827416035386638006168561813653185293212008712646857986210177936049303817783576938212029567638277070759444699322686210843672207672999936.00000000	      0.10461922	226749408424126941321263859860934620380393259993914579542530196613630618920578214336630173116031150973300995254364125922647302867970778103041599995904.00000000	      0.10781867	      0.04995753	      0.09993544
